<?xml version="1.0" encoding="UTF-8"?>
<svg id="Layer_2" xmlns="http://www.w3.org/2000/svg" viewBox="0 0 516.77 157.89">
  <defs>
    <style>
      .cls-1 {
        fill: none;
      }

      .cls-2 {
        fill: #16a34a;
      }
    </style>
  </defs>
  <g id="Layer_1-2" data-name="Layer_1">
    <g>
      <rect class="cls-1" x="450.84" y="73.95" width="13.41" height="12.55"/>
      <rect class="cls-1" x="434.66" y="73.95" width="13.41" height="12.55"/>
      <polygon class="cls-1" points="510.69 59.19 499.4 58.9 499.4 71.19 509.23 71.19 510.69 59.19"/>
      <polygon class="cls-1" points="431.88 89.82 431.88 89.26 431.68 89.26 431.88 89.82"/>
      <polygon class="cls-1" points="496.63 58.84 483.21 58.51 483.21 71.19 496.63 71.19 496.63 58.84"/>
      <polygon class="cls-1" points="507.05 89.26 507.05 89.26 499.4 89.26 499.4 98.27 506.03 97.74 507.05 89.26"/>
      <polygon class="cls-1" points="508.9 73.95 499.4 73.95 499.4 86.5 507.39 86.5 508.9 73.95"/>
      <polygon class="cls-1" points="195.59 150.99 199.56 150.99 197.56 145.93 195.59 150.99"/>
      <polygon class="cls-1" points="133.67 150.99 137.65 150.99 135.65 145.93 133.67 150.99"/>
      <polygon class="cls-1" points="38.15 150.99 42.13 150.99 40.13 145.93 38.15 150.99"/>
      <path class="cls-1" d="M94.98,144.23h-2.35v3.7h2.12c1.31,0,3.01-.05,3.01-1.82,0-1.63-1.47-1.89-2.78-1.89Z"/>
      <path class="cls-1" d="M280.8,144.23h-2.34v3.7h2.12c1.31,0,3.01-.05,3.01-1.82,0-1.63-1.47-1.89-2.78-1.89Z"/>
      <path class="cls-1" d="M214.61,144.23h-2.35v3.7h2.12c1.31,0,3.01-.05,3.01-1.82,0-1.63-1.47-1.89-2.78-1.89Z"/>
      <rect class="cls-1" x="483.21" y="73.95" width="13.41" height="12.55"/>
      <polygon class="cls-1" points="480.44 89.26 467.03 89.26 467.03 100.83 480.44 99.78 480.44 89.26"/>
      <polygon class="cls-1" points="431.88 86.5 431.88 73.95 425.69 73.95 430.59 86.5 431.88 86.5"/>
      <polygon class="cls-1" points="448.07 57.63 434.66 57.3 434.66 71.19 448.07 71.19 448.07 57.63"/>
      <path class="cls-1" d="M438.26,103.13l9.81-.78v-13.09h-13.41v7.64l2.55,6.52c.33-.16.69-.26,1.06-.29Z"/>
      <polygon class="cls-1" points="496.62 89.26 483.21 89.26 483.21 99.55 496.62 98.48 496.62 89.26"/>
      <polygon class="cls-1" points="431.88 57.22 419.05 56.9 424.62 71.19 431.88 71.19 431.88 57.22"/>
      <path class="cls-1" d="M499.83,149.55c2.62,0,4.71-2.08,4.71-4.7s-2.09-4.71-4.71-4.71-4.71,2.09-4.71,4.71,2.09,4.7,4.71,4.7ZM499.83,142.38c1.42,0,2.56,1.14,2.56,2.56s-1.14,2.55-2.56,2.55-2.56-1.12-2.56-2.55,1.14-2.56,2.56-2.56Z"/>
      <polygon class="cls-1" points="464.25 89.26 450.84 89.26 450.84 102.13 464.25 101.06 464.25 89.26"/>
      <polygon class="cls-1" points="480.44 58.43 467.03 58.1 467.03 58.1 467.03 71.19 480.44 71.19 480.44 58.43"/>
      <rect class="cls-1" x="467.03" y="73.95" width="13.41" height="12.55"/>
      <polygon class="cls-1" points="464.25 58.03 450.84 57.69 450.84 71.19 464.25 71.19 464.25 58.03"/>
      <path class="cls-1" d="M419.2,144.86c0,2.62,2.09,4.7,4.71,4.7s4.71-2.08,4.71-4.7-2.09-4.71-4.71-4.71-4.71,2.09-4.71,4.71ZM423.91,142.38c1.42,0,2.56,1.14,2.56,2.56s-1.14,2.55-2.56,2.55-2.56-1.12-2.56-2.55,1.14-2.56,2.56-2.56Z"/>
      <g>
        <g>
          <path class="cls-2" d="M295.8,3.24C204.84,5.25,118.26,54.97,54.41,97.17L97.4,31.53l14.95,24.37,15.8-8.52L97.05,0,0,157.47c29.09-24.54,55.77-46.35,84.17-64.42,51.62-32.93,72.21-48.16,145.32-71.75,55.95-18.05,104.05-11.05,146.87-.34-22.31-9.52-47.13-18.46-80.56-17.72Z"/>
          <polygon class="cls-2" points="178.57 123.39 148.39 78.04 132.71 87.97 154.97 123.54 178.57 123.39"/>
        </g>
        <path d="M256.3,101.31c-5.47.99-11.15,1.2-16.66.33-10.15-1.59-19.02-7.49-23.4-16.97-3.44-7.45-3.64-16.32-.6-23.94,3.04-7.62,9.24-13.91,16.79-17.13,10.77-4.6,23.04-2.84,33.56,1.55.9-6.92,1.8-13.84,2.7-20.77-20.57-7.8-60.81-4.58-74.74,26.38-6.91,14.1-5.52,32.65,2.27,46.03,5.98,10.25,15.95,17.93,27.03,21.98,15.1,5.52,33.22,5.25,48.26-.37l-3.21-21.02c.19,1.35-10.91,3.73-12,3.93Z"/>
        <path d="M317.29,60.41c-1.88-.51-3.74-1.22-5.35-2.32-4.35-2.98-4.92-8.18-2.03-12.42,4.29-6.3,12.36-5.33,19-4.25,1.18.19,13.31,2.83,13.16,3.8,1.06-6.67,2.13-13.34,3.19-20.02-10.13-2.79-18.69-5.78-32.05-3.8-20.25,3-26.73,18.07-27.45,25.84-3.45,26.9,23.37,30.61,34.35,35.98,17.95,6.47,9.84,21.19-6,19.89-8.6-.63-17.83-1.9-27.71-7.98l-2.43,21.03c6.6,3.39,13.8,5.49,21.15,6.46,11.04,1.46,23.56,1.47,33.34-4.44,7.21-4.36,12.57-11.43,14.26-19.74,1.29-6.33.53-13.7-3.63-18.88-5.63-7.01-14.22-12.92-31.79-19.13Z"/>
      </g>
      <path d="M38.75,141.19l-7.04,16.28h3.96l1.36-3.45h6.32l1.4,3.45h4.05l-7.08-16.28h-2.97ZM38.15,150.99l1.98-5.06,2,5.06h-3.98Z"/>
      <polygon points="60.46 151.82 60.42 151.82 56.67 141.19 51.24 141.19 51.24 157.47 54.83 157.47 54.83 144.99 54.87 144.99 58.99 157.47 61.73 157.47 66 144.99 66.05 144.99 66.05 157.47 69.64 157.47 69.64 141.19 64.23 141.19 60.46 151.82"/>
      <polygon points="77.48 150.85 84.54 150.85 84.54 147.54 77.48 147.54 77.48 144.5 84.96 144.5 84.96 141.19 73.89 141.19 73.89 157.47 85.37 157.47 85.37 154.16 77.48 154.16 77.48 150.85"/>
      <path d="M101.49,146.14c0-3.79-2.81-4.94-6.14-4.94h-6.3v16.28h3.59v-6.51h1.77l3.4,6.51h4.3l-4.14-6.88c2.3-.41,3.52-2.18,3.52-4.46ZM94.75,147.93h-2.12v-3.7h2.35c1.31,0,2.78.25,2.78,1.89,0,1.77-1.7,1.82-3.01,1.82Z"/>
      <rect x="104.71" y="141.19" width="3.59" height="16.28"/>
      <path d="M119.82,154.58c-2.6,0-4.6-2.21-4.6-5.24s2-5.24,4.71-5.24c1.33,0,2.37.48,3.08,1.33l2.76-2.25c-1.38-1.77-3.68-2.39-5.5-2.39-5.08,0-8.78,3.33-8.78,8.55s3.7,8.55,8.78,8.55c2.23,0,4.53-.9,5.89-2.83l-2.99-2.23c-.74,1.1-1.91,1.75-3.36,1.75Z"/>
      <path d="M134.27,141.19l-7.04,16.28h3.96l1.36-3.45h6.32l1.4,3.45h4.05l-7.08-16.28h-2.97ZM133.67,150.99l1.98-5.06,2,5.06h-3.98Z"/>
      <polygon points="144.3 147.68 147.24 147.68 149.31 141.19 146 141.19 144.3 147.68"/>
      <path d="M155.7,145.77c0-1.22,1.4-1.68,2.41-1.68.87,0,2.02.34,2.6,1.08l2.46-2.69c-1.38-1.22-3.15-1.7-4.99-1.7-3.2,0-6.21,1.82-6.21,5.29,0,5.43,7.63,3.82,7.63,6.81,0,1.15-1.31,1.7-2.48,1.7s-2.39-.58-3.13-1.54l-2.55,2.81c1.54,1.43,3.38,2.05,5.47,2.05,3.36,0,6.28-1.72,6.28-5.36,0-5.7-7.5-3.79-7.5-6.76Z"/>
      <path d="M181.74,154.58c-2.6,0-4.6-2.21-4.6-5.24s2-5.24,4.71-5.24c1.33,0,2.37.48,3.08,1.33l2.76-2.25c-1.38-1.77-3.68-2.39-5.5-2.39-5.08,0-8.78,3.33-8.78,8.55s3.7,8.55,8.78,8.55c2.23,0,4.53-.9,5.89-2.83l-2.99-2.23c-.74,1.1-1.91,1.75-3.36,1.75Z"/>
      <path d="M196.18,141.19l-7.04,16.28h3.96l1.36-3.45h6.32l1.4,3.45h4.05l-7.08-16.28h-2.97ZM195.59,150.99l1.98-5.06,2,5.06h-3.98Z"/>
      <path d="M221.11,146.14c0-3.79-2.81-4.94-6.14-4.94h-6.3v16.28h3.59v-6.51h1.77l3.4,6.51h4.3l-4.14-6.88c2.3-.41,3.52-2.18,3.52-4.46ZM214.38,147.93h-2.12v-3.7h2.35c1.31,0,2.78.25,2.78,1.89,0,1.77-1.7,1.82-3.01,1.82Z"/>
      <polygon points="222.45 144.37 227.1 144.37 227.1 157.47 230.68 157.47 230.68 144.37 235.33 144.37 235.33 141.19 222.45 141.19 222.45 144.37"/>
      <path d="M248.6,145.77c0-1.22,1.4-1.68,2.41-1.68.87,0,2.02.34,2.6,1.08l2.46-2.69c-1.38-1.22-3.15-1.7-4.99-1.7-3.2,0-6.21,1.82-6.21,5.29,0,5.43,7.63,3.82,7.63,6.81,0,1.15-1.31,1.7-2.48,1.7s-2.39-.58-3.13-1.54l-2.55,2.81c1.54,1.43,3.38,2.05,5.47,2.05,3.36,0,6.28-1.72,6.28-5.36,0-5.7-7.5-3.79-7.5-6.76Z"/>
      <polygon points="263.3 150.85 270.36 150.85 270.36 147.54 263.3 147.54 263.3 144.5 270.77 144.5 270.77 141.19 259.71 141.19 259.71 157.47 271.18 157.47 271.18 154.16 263.3 154.16 263.3 150.85"/>
      <path d="M287.31,146.14c0-3.79-2.8-4.94-6.14-4.94h-6.3v16.28h3.59v-6.51h1.77l3.4,6.51h4.3l-4.14-6.88c2.3-.41,3.52-2.18,3.52-4.46ZM280.57,147.93h-2.12v-3.7h2.34c1.31,0,2.78.25,2.78,1.89,0,1.77-1.7,1.82-3.01,1.82Z"/>
      <polygon points="297.11 151.86 297.06 151.86 293.04 141.19 288.94 141.19 295.45 157.47 298.32 157.47 305.04 141.19 301.2 141.19 297.11 151.86"/>
      <rect x="307.5" y="141.19" width="3.59" height="16.28"/>
      <path d="M322.61,154.58c-2.6,0-4.6-2.21-4.6-5.24s2-5.24,4.71-5.24c1.33,0,2.37.48,3.08,1.33l2.76-2.25c-1.38-1.77-3.68-2.39-5.5-2.39-5.08,0-8.78,3.33-8.78,8.55s3.7,8.55,8.78,8.55c2.23,0,4.53-.9,5.89-2.83l-2.99-2.23c-.74,1.1-1.91,1.75-3.36,1.75Z"/>
      <polygon points="335.42 150.85 342.48 150.85 342.48 147.54 335.42 147.54 335.42 144.5 342.9 144.5 342.9 141.19 331.84 141.19 331.84 157.47 343.31 157.47 343.31 154.16 335.42 154.16 335.42 150.85"/>
      <path d="M499.83,147.49c1.42,0,2.56-1.12,2.56-2.55s-1.14-2.56-2.56-2.56-2.56,1.14-2.56,2.56,1.14,2.55,2.56,2.55Z"/>
      <path d="M424.96,121.66s.03-.03.05-.04c.01-.01.03-.01.05-.02.02-.01.03-.02.05-.04l13.68-10.76,69.01-5.49c1.86-.15,3.39-1.62,3.61-3.47l5.34-44.2c.14-1.11-.21-2.22-.94-3.06-.72-.84-1.77-1.34-2.88-1.37l-96.79-2.41-9.92-25.43h0c-.5-1.3-1.64-2.23-3-2.46l-21.37-3.65h-.01c-.21-.04-.43-.06-.65-.06h0c-2.05-.03-3.83,1.57-4,3.61-.17,2.04,1.3,3.91,3.31,4.24h.01l19.18,3.27,30.22,77.41-9.69,7.6s-.09.08-.13.13c-.01,0-.01.03-.02.04-.01.01-.02.02-.04.04-4.54,3.51-6.74,8.91-5.5,13.87.02.05.04.1.06.14,1.62,3.79,4.23,6.28,7.64,7.48-3.6.78-6.32,4.01-6.32,7.83,0,4.4,3.61,8.01,8.01,8.01s8.01-3.61,8.01-8.01c0-2.99-1.66-5.6-4.11-6.98l67.77.19c-2.26,1.42-3.76,3.94-3.76,6.78,0,4.4,3.61,8.01,8.01,8.01s8.01-3.61,8.01-8.01c0-2.83-1.5-5.32-3.73-6.75h6.01s.01.01.01.01c2.16.03,3.99-1.78,4-3.94,0-2.16-1.81-3.98-3.98-3.96h-.01l-82.3-.24h-.04c-.07,0-.15,0-.22,0h-.02c-2.15.12-3.41-.21-4.14-.66-.73-.46-1.04-1.05-1.24-1.85-.35-1.41.27-3.95,2.76-5.81ZM431.88,89.82l-.21-.57h.21v.57ZM448.07,86.5h-13.41v-12.55h13.41v12.55ZM464.25,86.5h-13.41v-12.55h13.41v12.55ZM499.4,58.9l11.29.29-1.45,12h-9.83v-12.28ZM499.4,73.95h9.5l-1.51,12.55h-7.98v-12.55ZM499.4,89.26h7.65s-1.02,8.48-1.02,8.48l-6.63.53v-9.01ZM483.21,58.51l13.41.34v12.34h-13.41v-12.68ZM483.21,73.95h13.41v12.55h-13.41v-12.55ZM483.21,89.26h13.41v9.22l-13.41,1.07v-10.29ZM467.03,58.1h0s13.41.33,13.41.33v12.75h-13.41v-13.09ZM467.03,73.95h13.41v12.55h-13.41v-12.55ZM467.03,89.26h13.41v10.52l-13.41,1.06v-11.58ZM450.84,57.69l13.41.34v13.16h-13.41v-13.5ZM450.84,89.26h13.41v11.8l-13.41,1.07v-12.87ZM434.66,57.3l13.41.34v13.56h-13.41v-13.89ZM434.65,89.26h13.41v13.09l-9.81.78c-.37.03-.73.13-1.06.29l-2.55-6.52v-7.64ZM419.05,56.9l12.84.32v13.97h-7.27l-5.57-14.29ZM425.69,73.95h6.2v12.55h-1.3l-4.9-12.55ZM499.83,140.15c2.62,0,4.71,2.09,4.71,4.71s-2.09,4.7-4.71,4.7-4.71-2.08-4.71-4.7,2.09-4.71,4.71-4.71ZM423.91,140.15c2.62,0,4.71,2.09,4.71,4.71s-2.09,4.7-4.71,4.7-4.71-2.08-4.71-4.7,2.09-4.71,4.71-4.71Z"/>
      <path d="M423.91,147.49c1.42,0,2.56-1.12,2.56-2.55s-1.14-2.56-2.56-2.56-2.56,1.14-2.56,2.56,1.14,2.55,2.56,2.55Z"/>
    </g>
  </g>
</svg>