<?xml version="1.0" encoding="UTF-8"?>
<svg id="Layer_2" xmlns="http://www.w3.org/2000/svg" viewBox="0 0 376.36 157.47">
  <defs>
    <style>
      .cls-1 {
        fill: #16a34a;
      }
    </style>
  </defs>
  <g id="Layer_1-2" data-name="Layer_1">
    <g>
      <g>
        <path class="cls-1" d="M295.8,3.24C204.84,5.25,118.26,54.97,54.41,97.17L97.4,31.53l14.95,24.37,15.8-8.52L97.05,0,0,157.47c29.09-24.54,55.77-46.35,84.17-64.42,51.62-32.93,72.21-48.16,145.32-71.75,55.95-18.05,104.05-11.05,146.87-.34-22.31-9.52-47.13-18.46-80.56-17.72Z"/>
        <polygon class="cls-1" points="178.57 123.39 148.39 78.04 132.71 87.97 154.97 123.54 178.57 123.39"/>
      </g>
      <path d="M256.3,101.31c-5.47.99-11.15,1.2-16.66.33-10.15-1.59-19.02-7.49-23.4-16.97-3.44-7.45-3.64-16.32-.6-23.94,3.04-7.62,9.24-13.91,16.79-17.13,10.77-4.6,23.04-2.84,33.56,1.55.9-6.92,1.8-13.84,2.7-20.77-20.57-7.8-60.81-4.58-74.74,26.38-6.91,14.1-5.52,32.65,2.27,46.03,5.98,10.25,15.95,17.93,27.03,21.98,15.1,5.52,33.22,5.25,48.26-.37l-3.21-21.02c.19,1.35-10.91,3.73-12,3.93Z"/>
      <path d="M317.29,60.41c-1.88-.51-3.74-1.22-5.35-2.32-4.35-2.98-4.92-8.18-2.03-12.42,4.29-6.3,12.36-5.33,19-4.25,1.18.19,13.31,2.83,13.16,3.8,1.06-6.67,2.13-13.34,3.19-20.02-10.13-2.79-18.69-5.78-32.05-3.8-20.25,3-26.73,18.07-27.45,25.84-3.45,26.9,23.37,30.61,34.35,35.98,17.95,6.47,9.84,21.19-6,19.89-8.6-.63-17.83-1.9-27.71-7.98l-2.43,21.03c6.6,3.39,13.8,5.49,21.15,6.46,11.04,1.46,23.56,1.47,33.34-4.44,7.21-4.36,12.57-11.43,14.26-19.74,1.29-6.33.53-13.7-3.63-18.88-5.63-7.01-14.22-12.92-31.79-19.13Z"/>
    </g>
  </g>
</svg>